<?xml version="1.0" encoding="utf-8"?>
<!-- Generator: Adobe Illustrator 24.3.0, SVG Export Plug-In . SVG Version: 6.00 Build 0)  -->
<svg version="1.1" id="Слой_1" xmlns="http://www.w3.org/2000/svg" xmlns:xlink="http://www.w3.org/1999/xlink" x="0px" y="0px"
	 viewBox="0 0 3000 2000" style="enable-background:new 0 0 3000 2000;" xml:space="preserve">
<style type="text/css">
	.st0{fill:#EBF3FA;}
	.st1{fill:#D2E3FC;}
	.st2{fill:#DFEBFD;}
	.st3{fill:#95C38B;}
	.st4{fill:#D86713;}
	.st5{fill:#F99746;}
	.st6{fill:#F1A34F;}
	.st7{opacity:0.4;fill:#D86713;}
	.st8{fill:#ED7D2B;}
	.st9{fill:#699DEE;}
	.st10{fill:#E4EDF9;}
	.st11{fill:#AFCDFB;}
	.st12{fill:#E9F3FE;}
	.st13{fill:#CAE0FF;}
	.st14{fill:#1C468A;}
	.st15{fill:#78ACEA;}
	.st16{fill:#FFFFFF;}
	.st17{fill:#A8D29F;}
	.st18{fill:#E49963;}
	.st19{fill:#4A75CB;}
	.st20{fill:#2B478B;}
	.st21{fill:#163560;}
	.st22{fill:#EE9849;}
	.st23{fill:#739AF0;}
	.st24{fill:#D68D5D;}
	.st25{fill:#233862;}
	.st26{fill:#213F7A;}
	.st27{fill:#FFB27D;}
	.st28{fill:#E2915A;}
	.st29{fill:#2E3552;}
	.st30{fill:#F4A269;}
	.st31{fill:#C65447;}
	.st32{fill:#B5453C;}
	.st33{fill:#9E332E;}
	.st34{fill:#FAFDFF;}
	.st35{fill:#B7D5F9;}
	.st36{fill:#FCA56B;}
	.st37{opacity:0.5;}
</style>
<rect class="st0" width="3000" height="2000"/>
<g>
	<path class="st1" d="M897.32,1286.49c0,0,95.43,20.01,90.61,37.54c-4.82,17.53-104.73-29.97-104.73-29.97s-73.66,65.88-83.92,99.46
		c0,0,107.59-15.22,98.6,0.58c-8.99,15.8-120.2,36.84-120.2,36.84s-50.57,77.89-6.19,112.14c44.38,34.25,78.44,22.74,86.74,11.53
		c8.3-11.2,40.49-91.83,50.04-85.43c9.55,6.4,3.78,67.46-18.11,93.78c0,0,96.09,0.76,110.04-44.71
		c13.96-45.47-7.51-70.23,1.62-98.17c9.14-27.94,24.62-44.71,26.31-28.15c1.68,16.56-22.21,60.36-12.67,89.93
		c9.53,29.58,13.65,52.03,38.81,14.86c25.16-37.17,50.16-112.23,24.95-139.75c-1.1-1.2-2.15-2.34-3.15-3.44
		c2.22,1.95,3.15,3.44,3.15,3.44c7.48-5.68,32.98-8.28,52.2-9.46c3.18,0.02,7.68-0.18,13.87-0.68h0c2.75-0.1,4.99-0.16,6.56-0.2
		c41.76,0.52,100.48,33.74,100.48,33.74l5.93-7.71c-54.38-45.06-119.57-32.55-119.57-32.55c-49.68,5.04-84.66-10.67-84.66-10.67
		s-11.38-96.23-85.85-84.38C968.17,1245.07,919.64,1259.13,897.32,1286.49z"/>
	<path class="st2" d="M2155.54,475.64c-25.42-93.87-183.82-64.53-183.82-64.53s-107.56,164.27-138.85,168.18
		c-31.29,3.91,64.53-158.4,64.53-158.4c-60.62-5.87-215.11,68.44-215.11,68.44s9.78,191.65-21.51,187.73
		c-31.29-3.91,0-170.13,0-170.13c-58.67,17.6-113.42,86.05-113.42,86.05c-68.44,111.47,78.22,193.6,78.22,193.6
		s1.96,66.49-39.11,142.76c0,0,0,0,0,0s-9.27,14.08-18.69,38.02h16c1.31-4.29,2.75-8.43,4.34-12.42c0-0.03,0.01-0.05,0.03-0.07
		c0.02-0.06,0.05-0.11,0.07-0.17c1.1-2.47,2.67-5.99,4.63-10.27c0-0.01,0-0.01,0.01-0.02c0-0.01,0.01-0.01,0.01-0.02
		c4.89-9.57,8.19-16.63,10.28-21.73c0.01-0.02,0.01-0.03,0.02-0.05c14.64-30.03,35.73-69.15,49.8-77.36c0,0-1.77-2.49-3.42-7.34
		c1.09,2.34,2.23,4.78,3.42,7.34c27.38,58.67,164.27,68.44,240.54,52.8c76.27-15.64,43.02-37.16,1.96-72.07
		c-41.07-34.91-127.11-25.71-152.54-39.4c-25.42-13.69,11.73-27.38,62.58-23.47c50.84,3.91,76.27,54.76,158.4,62.58
		c82.13,7.82,144.71-146.67,144.71-146.67c-56.71,17.6-158.4-13.69-162.31-33.24c-3.91-19.56,146.67-17.6,170.13-23.47
		S2180.97,569.51,2155.54,475.64z"/>
	<path class="st1" d="M636.88,482.54c35.02-56.05,132.27-5.78,132.27-5.78s37.61,128.02,57.19,136.72
		c19.58,8.7-10.79-115.73-10.79-115.73c40.58,8.12,126.43,86.87,126.43,86.87s-44.09,122.72-22.97,126.34s33.5-110.66,33.5-110.66
		c34.69,23,56.83,78.3,56.83,78.3c22.57,85.98-88.99,110.52-88.99,110.52s-14.36,42.86-2.67,100.55l0,0c0,0,3.25,10.98,4.67,28.41
		l-10.4-3.15c-0.01-3.05-0.13-6.03-0.38-8.93c0.01-0.02,0-0.04-0.01-0.05c0-0.04-0.01-0.08-0.01-0.13
		c-0.23-1.82-0.56-4.42-0.99-7.59c0,0,0-0.01,0-0.01c0-0.01,0-0.01,0-0.02c-1.29-7.18-2.05-12.43-2.4-16.16c0-0.01,0-0.02,0-0.03
		c-3.61-22.41-9.63-52.01-17.16-60.12c0,0,1.64-1.27,3.67-4.1c-1.17,1.31-2.39,2.67-3.67,4.1
		c-29.36,32.77-120.32,12.17-166.84-13.02c-46.52-25.19-20.67-32.64,12.92-47.26c33.58-14.62,87.74,8.31,106.97,4.41
		c19.23-3.9-2.24-20.12-36.08-27.58c-33.84-7.47-60.39,20.6-115.35,9.51c-54.96-11.08-65.24-123.89-65.24-123.89
		c33.42,22.61,105.72,22.28,112.11,10.34c6.39-11.95-91.93-40.32-106.04-48.76C619.33,577.2,601.86,538.59,636.88,482.54z"/>
	<path class="st2" d="M1459.26,475.83c-24.51-40.82-95.2-5.85-95.2-5.85s-28.73,91.73-42.94,97.75
		c-14.22,6.02,9.25-83.23,9.25-83.23c-29.34,5.33-92.18,60.96-92.18,60.96s30.19,88.96,14.93,91.3
		c-15.26,2.34-22.72-80.14-22.72-80.14c-25.28,16.12-41.94,55.67-41.94,55.67c-17.36,61.64,62.69,80.75,62.69,80.75
		s9.8,31.06,0.64,72.46l0,0c0,0-2.48,7.87-3.73,20.4l7.53-2.14c0.04-2.19,0.17-4.34,0.39-6.43c0-0.01,0-0.03,0-0.04
		c0-0.03,0.01-0.06,0.01-0.09c0.19-1.31,0.46-3.18,0.81-5.46c0,0,0-0.01,0-0.01c0,0,0-0.01,0-0.01c1.02-5.16,1.64-8.93,1.94-11.61
		c0-0.01,0-0.02,0-0.02c2.89-16.1,7.6-37.34,13.13-43.09c0,0-1.17-0.94-2.59-3c0.83,0.96,1.69,1.95,2.59,3
		c20.73,23.98,86.51,10.31,120.35-7.25c33.83-17.55,15.3-23.25-8.7-34.21c-24-10.96-63.3,4.86-77.11,1.81
		c-13.8-3.05,1.87-14.46,26.34-19.41c24.47-4.95,43.23,15.61,82.97,8.33c39.73-7.28,48.58-88.4,48.58-88.4
		c-24.36,15.86-76.44,14.7-80.89,6.01c-4.45-8.69,66.73-27.87,77-33.77C1470.69,544.24,1483.77,516.65,1459.26,475.83z"/>
	<path class="st3" d="M265.79,1554.78c-0.78,0.22-1.79,0.44-3.04,0.66C263.76,1555.2,264.77,1554.97,265.79,1554.78z"/>
	<g>
		<g>
			<path class="st4" d="M1265.02,988.83l-48.1,571.89c0,0-5.04,34.67,20.75,34.73c42.4,0.1,211.03,0,211.03,0
				s-31.91-7.22-31.52-23.45c0.46-19.14,56.22-588.58,56.22-588.58L1265.02,988.83z"/>
			<path class="st5" d="M1462.38,1585.08c-8.34,0.02-169.4,0.53-210.69,0c-17.99-0.22-21.15-16-21.3-26.21
				c-0.07-4.89,0.55-8.51,0.55-8.51l1.25-14.86l3.19-37.89l2.82-33.47l3.62-43.01l3.05-36.3l34.18-406.37l208.37-5.41
				c0,0-23.48,238.31-40.1,411.78c-1.85,19.33-3.62,37.86-5.25,55.16c-0.53,5.52-1.04,10.92-1.53,16.18
				c-1.54,16.41-2.95,31.48-4.17,44.79c-0.65,7.01-1.24,13.53-1.78,19.5c-2.12,23.39-3.36,38.33-3.38,41.17
				c-0.01,1.66,0.13,3.2,0.41,4.63C1435.02,1584.48,1459.25,1585.08,1462.38,1585.08z"/>
			<polygon class="st5" points="758.97,677.63 876.13,1148.23 892.17,1212.68 946.74,1431.87 1960.49,1431.87 1759.37,677.63 			"/>
			<polygon class="st5" points="758.97,677.63 742.74,683.04 925.15,1448.24 946.74,1431.87 			"/>
			<polygon class="st4" points="925.15,1448.24 1932.67,1448.24 1960.49,1431.87 946.74,1431.87 			"/>
			
				<rect x="1278.96" y="1585.31" transform="matrix(-1 -1.224647e-16 1.224647e-16 -1 2776.0654 3180.9775)" class="st6" width="218.14" height="10.37"/>
			<polygon class="st6" points="1911.38,1292.89 1746.89,687.6 761.46,687.6 758.97,677.63 1759.37,677.63 1923.31,1291.54 			"/>
			<polygon class="st4" points="1441.65,1448.24 1440.52,1456.16 1235.37,1497.61 1238.19,1464.13 1239.53,1448.24 			"/>
			<path class="st7" d="M1462.38,1585.08c-8.34,0.02-169.4,0.53-210.69,0c-17.99-0.22-21.15-16-21.3-26.21l204.18-38.42
				c-2.12,23.39-3.36,38.33-3.38,41.17c-0.01,1.66,0.13,3.2,0.41,4.63C1435.02,1584.48,1459.25,1585.08,1462.38,1585.08z"/>
			<polygon class="st8" points="1392.07,1279.18 946.74,1431.87 892.17,1212.68 			"/>
			<polygon class="st9" points="758.97,677.63 1759.37,677.63 1921.68,1283.8 909.88,1283.8 			"/>
		</g>
		
			<ellipse transform="matrix(0.672 -0.7405 0.7405 0.672 -530.6985 1522.6039)" class="st4" cx="1453.57" cy="1360.43" rx="24.43" ry="29.66"/>
		<polygon class="st10" points="1874.5,1257.53 937.83,1257.53 831.75,834.96 823.62,802.55 816.68,774.91 800.41,710.1 
			1723.59,710.1 1741.45,774.91 1749.07,802.55 1758,834.96 		"/>
		<polygon class="st11" points="1741.45,774.91 816.68,774.91 800.41,710.1 1723.59,710.1 		"/>
		<g>
			<path class="st12" d="M838.6,739.39c-1.12-4.47,1.61-8.1,6.08-8.1c4.47,0,9.01,3.63,10.12,8.1c1.12,4.47-1.61,8.1-6.08,8.1
				S839.72,743.86,838.6,739.39z"/>
			<path class="st12" d="M865.52,739.39c-1.12-4.47,1.61-8.1,6.08-8.1c4.47,0,9.01,3.63,10.12,8.1c1.12,4.47-1.61,8.1-6.08,8.1
				C871.17,747.49,866.64,743.86,865.52,739.39z"/>
			<path class="st12" d="M894.51,739.39c-1.12-4.47,1.61-8.1,6.08-8.1c4.47,0,9.01,3.63,10.12,8.1c1.12,4.47-1.61,8.1-6.08,8.1
				C900.16,747.49,895.63,743.86,894.51,739.39z"/>
		</g>
		<polygon class="st13" points="1668.16,1220.04 974.34,1220.04 868.76,805.69 1552.79,805.69 		"/>
		<polygon class="st1" points="1757.89,902.1 1600.64,902.1 1571.89,805.69 1731.05,805.69 		"/>
		<polygon class="st14" points="1333.65,846.04 1243.67,846.04 1239.97,832.17 1329.94,832.17 		"/>
		<polygon class="st15" points="1493.17,846.04 1345.98,846.04 1342.27,832.17 1489.47,832.17 		"/>
		<polygon class="st15" points="1348.77,883.42 1189.2,883.42 1185.5,869.55 1345.07,869.55 		"/>
		<polygon class="st6" points="1445.83,883.42 1363.12,883.42 1359.42,869.55 1442.13,869.55 		"/>
		<polygon class="st9" points="1360.8,947.77 1270.82,947.77 1267.12,933.89 1357.1,933.89 		"/>
		<polygon class="st15" points="1520.32,947.77 1373.13,947.77 1369.43,933.89 1516.62,933.89 		"/>
		<polygon class="st16" points="1375.92,985.14 1216.36,985.14 1212.65,971.27 1372.22,971.27 		"/>
		<polygon class="st16" points="1472.98,985.14 1390.28,985.14 1386.57,971.27 1469.28,971.27 		"/>
		<polygon class="st14" points="1279.3,1043 974.9,1043 971.2,1029.12 1275.6,1029.12 		"/>
		<polygon class="st9" points="1388.74,1043 1298.76,1043 1295.06,1029.12 1385.03,1029.12 		"/>
		<polygon class="st15" points="1548.26,1043 1401.07,1043 1397.36,1029.12 1544.56,1029.12 		"/>
		<polygon class="st16" points="1074.85,1080.37 984.87,1080.37 981.17,1066.5 1071.14,1066.5 		"/>
		<polygon class="st6" points="1403.86,1080.37 1244.29,1080.37 1240.59,1066.5 1400.16,1066.5 		"/>
		<polygon class="st15" points="1234.37,1080.37 1087.18,1080.37 1083.47,1066.5 1230.67,1066.5 		"/>
		<polygon class="st15" points="1500.92,1080.37 1418.21,1080.37 1414.51,1066.5 1497.22,1066.5 		"/>
		<polygon class="st14" points="1313.86,1146.18 1009.46,1146.18 1005.75,1132.31 1310.16,1132.31 		"/>
		<polygon class="st9" points="1423.29,1146.18 1333.32,1146.18 1329.62,1132.31 1419.59,1132.31 		"/>
		<polygon class="st16" points="1109.41,1183.56 1019.43,1183.56 1015.73,1169.69 1105.7,1169.69 		"/>
		<polygon class="st6" points="1438.42,1183.56 1278.85,1183.56 1275.15,1169.69 1434.71,1169.69 		"/>
		<polygon class="st15" points="1268.93,1183.56 1121.74,1183.56 1118.03,1169.69 1265.23,1169.69 		"/>
		<polygon class="st15" points="1535.48,1183.56 1452.77,1183.56 1449.07,1169.69 1531.78,1169.69 		"/>
		<g>
			<polygon class="st15" points="1679.6,931.93 1610.4,932.14 1608.87,925.86 1678.07,925.64 			"/>
			<polygon class="st15" points="1716.1,931.81 1690.08,931.89 1688.55,925.61 1714.57,925.53 			"/>
			<polygon class="st15" points="1768.85,931.65 1722.85,931.79 1721.32,925.51 1767.31,925.37 			"/>
			<polygon class="st15" points="1652.21,947.91 1614.27,948.03 1612.74,941.75 1650.68,941.63 			"/>
			<polygon class="st15" points="1707.53,947.74 1658.54,947.9 1657.01,941.61 1706,941.46 			"/>
			<polygon class="st15" points="1772.72,947.54 1716.57,947.72 1715.04,941.43 1771.19,941.26 			"/>
		</g>
		<g>
			<polygon class="st15" points="1687.88,965.88 1618.68,966.09 1617.14,959.81 1686.35,959.6 			"/>
			<polygon class="st15" points="1724.38,965.77 1698.35,965.85 1696.82,959.56 1722.84,959.48 			"/>
			<polygon class="st15" points="1777.12,965.61 1731.13,965.75 1729.6,959.46 1775.59,959.32 			"/>
			<polygon class="st15" points="1660.49,981.87 1622.55,981.99 1621.02,975.7 1658.96,975.58 			"/>
			<polygon class="st15" points="1715.81,981.7 1666.81,981.85 1665.28,975.56 1714.28,975.41 			"/>
			<polygon class="st15" points="1781,981.5 1724.84,981.67 1723.31,975.39 1779.46,975.21 			"/>
		</g>
		<g>
			<polygon class="st16" points="1633.61,819.07 1591.94,819.2 1591.01,815.41 1632.69,815.29 			"/>
			<polygon class="st16" points="1655.59,819 1639.92,819.05 1639,815.27 1654.67,815.22 			"/>
			<polygon class="st16" points="1687.35,818.91 1659.66,818.99 1658.73,815.21 1686.43,815.12 			"/>
			<polygon class="st16" points="1617.12,828.7 1594.27,828.77 1593.35,824.98 1616.19,824.91 			"/>
			<polygon class="st16" points="1650.43,828.6 1620.92,828.69 1620,824.9 1649.51,824.81 			"/>
			<polygon class="st16" points="1689.68,828.48 1655.87,828.58 1654.95,824.79 1688.76,824.69 			"/>
		</g>
		<g>
			<polygon class="st16" points="1638.59,839.52 1596.92,839.65 1596,835.86 1637.67,835.73 			"/>
			<polygon class="st16" points="1660.57,839.45 1644.9,839.5 1643.98,835.71 1659.65,835.67 			"/>
			<polygon class="st16" points="1692.33,839.35 1664.64,839.44 1663.72,835.65 1691.41,835.57 			"/>
			<polygon class="st16" points="1622.1,849.15 1599.25,849.22 1598.33,845.43 1621.18,845.36 			"/>
			<polygon class="st16" points="1655.41,849.04 1625.91,849.13 1624.99,845.35 1654.49,845.26 			"/>
			<polygon class="st16" points="1694.67,848.92 1660.85,849.03 1659.93,845.24 1693.74,845.14 			"/>
		</g>
		<g>
			<polygon class="st15" points="1702.02,1023.9 1632.82,1024.11 1631.29,1017.83 1700.49,1017.61 			"/>
			<polygon class="st15" points="1738.52,1023.78 1712.5,1023.86 1710.96,1017.58 1736.99,1017.5 			"/>
			<polygon class="st15" points="1791.26,1023.62 1745.27,1023.76 1743.74,1017.48 1789.73,1017.34 			"/>
			<polygon class="st15" points="1674.63,1039.88 1636.69,1040 1635.16,1033.72 1673.1,1033.6 			"/>
			<polygon class="st15" points="1729.95,1039.71 1680.96,1039.87 1679.42,1033.58 1728.42,1033.43 			"/>
			<polygon class="st15" points="1795.14,1039.51 1738.99,1039.69 1737.45,1033.4 1793.6,1033.23 			"/>
		</g>
		<g>
			<polygon class="st15" points="1715.88,1080.76 1646.68,1080.97 1645.15,1074.69 1714.35,1074.47 			"/>
			<polygon class="st15" points="1752.38,1080.64 1726.36,1080.72 1724.82,1074.44 1750.85,1074.36 			"/>
			<polygon class="st15" points="1805.12,1080.48 1759.13,1080.62 1757.6,1074.34 1803.59,1074.2 			"/>
			<polygon class="st15" points="1688.49,1096.75 1650.55,1096.86 1649.02,1090.58 1686.96,1090.46 			"/>
			<polygon class="st15" points="1743.81,1096.58 1694.81,1096.73 1693.28,1090.44 1742.28,1090.29 			"/>
			<polygon class="st15" points="1809,1096.37 1752.84,1096.55 1751.31,1090.26 1807.46,1090.09 			"/>
		</g>
		<g>
			<polygon class="st15" points="1728.37,1131.99 1659.16,1132.2 1657.63,1125.91 1726.84,1125.7 			"/>
			<polygon class="st15" points="1764.87,1131.87 1738.84,1131.95 1737.31,1125.67 1763.33,1125.59 			"/>
			<polygon class="st15" points="1817.61,1131.71 1771.62,1131.85 1770.09,1125.57 1816.08,1125.43 			"/>
			<polygon class="st15" points="1700.98,1147.97 1663.04,1148.09 1661.51,1141.81 1699.45,1141.69 			"/>
			<polygon class="st15" points="1756.3,1147.8 1707.3,1147.96 1705.77,1141.67 1754.77,1141.52 			"/>
			<polygon class="st15" points="1821.48,1147.6 1765.33,1147.78 1763.8,1141.49 1819.95,1141.32 			"/>
		</g>
		<g>
			<g>
				<g>
					<path class="st17" d="M1760.97,1208.18c-11.12,0-22.81-9.05-26.06-20.17c-3.25-11.12,3.16-20.17,14.28-20.17
						c11.12,0,22.81,9.05,26.06,20.17C1778.5,1199.13,1772.09,1208.18,1760.97,1208.18z M1750.27,1171.53
						c-9.09,0-14.33,7.4-11.67,16.49s12.21,16.49,21.3,16.49c9.09,0,14.33-7.39,11.67-16.49S1759.36,1171.53,1750.27,1171.53z"/>
				</g>
				<g>
					<path class="st17" d="M1757.67,1198.27c-0.77-0.06-1.57-0.39-2.26-0.94l-11.32-9.06c-1.53-1.22-2.05-3.17-1.17-4.34
						c0.88-1.17,2.84-1.13,4.37,0.1l8,6.4l4.1-9.48c0.59-1.37,2.42-1.68,4.09-0.69c1.66,1,2.53,2.91,1.94,4.29l-5.39,12.46
						c-0.32,0.74-1.02,1.2-1.91,1.26C1757.97,1198.28,1757.82,1198.28,1757.67,1198.27z"/>
				</g>
			</g>
			<g>
				<g>
					<path class="st6" d="M1816.65,1208.18c-11.12,0-22.81-9.05-26.06-20.17c-3.25-11.12,3.16-20.17,14.28-20.17
						c11.12,0,22.81,9.05,26.06,20.17C1834.18,1199.13,1827.77,1208.18,1816.65,1208.18z M1805.95,1171.53
						c-9.09,0-14.33,7.4-11.67,16.49s12.21,16.49,21.3,16.49c9.09,0,14.33-7.39,11.67-16.49
						C1824.59,1178.92,1815.04,1171.53,1805.95,1171.53z"/>
				</g>
				<g>
					<path class="st6" d="M1811.72,1191.31L1811.72,1191.31c-1.57,0-3.23-1.28-3.69-2.85l-2.5-8.57c-0.46-1.57,0.45-2.85,2.02-2.85
						l0,0c1.57,0,3.23,1.28,3.69,2.85l2.5,8.57C1814.2,1190.03,1813.29,1191.31,1811.72,1191.31z"/>
					<path class="st6" d="M1814,1198.04h-0.62c-1.4,0-2.88-1.14-3.29-2.54l0,0c-0.41-1.4,0.4-2.54,1.8-2.54h0.62
						c1.4,0,2.88,1.14,3.29,2.54l0,0C1816.21,1196.89,1815.4,1198.04,1814,1198.04z"/>
				</g>
			</g>
		</g>
		<g>
			<g>
				<g>
					<path class="st17" d="M1698.93,892.81c-6.1,0-12.51-4.96-14.29-11.06c-1.78-6.1,1.73-11.06,7.83-11.06
						c6.1,0,12.51,4.96,14.29,11.06C1708.54,887.85,1705.03,892.81,1698.93,892.81z M1693.06,872.72c-4.98,0-7.86,4.05-6.4,9.04
						c1.46,4.98,6.69,9.04,11.68,9.04c4.98,0,7.85-4.05,6.4-9.04C1703.29,876.77,1698.05,872.72,1693.06,872.72z"/>
				</g>
				<g>
					<path class="st17" d="M1697.12,887.38c-0.42-0.03-0.86-0.21-1.24-0.51l-6.2-4.97c-0.84-0.67-1.13-1.74-0.64-2.38
						c0.48-0.64,1.56-0.62,2.39,0.05l4.38,3.51l2.25-5.2c0.33-0.75,1.33-0.92,2.24-0.38c0.91,0.55,1.39,1.6,1.06,2.35l-2.96,6.83
						c-0.17,0.4-0.56,0.66-1.05,0.69C1697.28,887.39,1697.2,887.39,1697.12,887.38z"/>
				</g>
			</g>
			<g>
				<g>
					<path class="st17" d="M1667.29,892.81c-6.1,0-12.51-4.96-14.29-11.06s1.73-11.06,7.83-11.06s12.51,4.96,14.29,11.06
						S1673.39,892.81,1667.29,892.81z M1661.42,872.72c-4.98,0-7.86,4.05-6.4,9.04c1.46,4.98,6.69,9.04,11.68,9.04
						c4.98,0,7.86-4.05,6.4-9.04C1671.64,876.77,1666.41,872.72,1661.42,872.72z"/>
				</g>
				<g>
					<path class="st17" d="M1665.48,887.38c-0.42-0.03-0.86-0.21-1.24-0.51l-6.2-4.97c-0.84-0.67-1.13-1.74-0.64-2.38
						c0.48-0.64,1.55-0.62,2.39,0.05l4.38,3.51l2.25-5.2c0.33-0.75,1.33-0.92,2.24-0.38c0.91,0.55,1.39,1.6,1.06,2.35l-2.96,6.83
						c-0.17,0.4-0.56,0.66-1.05,0.69C1665.64,887.39,1665.56,887.39,1665.48,887.38z"/>
				</g>
			</g>
			<g>
				<g>
					<path class="st17" d="M1634.51,892.81c-6.1,0-12.51-4.96-14.29-11.06s1.73-11.06,7.83-11.06s12.51,4.96,14.29,11.06
						S1640.61,892.81,1634.51,892.81z M1628.65,872.72c-4.98,0-7.86,4.05-6.4,9.04c1.46,4.98,6.69,9.04,11.68,9.04
						c4.98,0,7.86-4.05,6.4-9.04C1638.87,876.77,1633.63,872.72,1628.65,872.72z"/>
				</g>
				<g>
					<path class="st17" d="M1632.71,887.38c-0.42-0.03-0.86-0.21-1.24-0.51l-6.2-4.97c-0.84-0.67-1.13-1.74-0.64-2.38
						c0.48-0.64,1.56-0.62,2.39,0.05l4.38,3.51l2.25-5.2c0.33-0.75,1.33-0.92,2.24-0.38c0.91,0.55,1.39,1.6,1.06,2.35l-2.96,6.83
						c-0.17,0.4-0.56,0.66-1.05,0.69C1632.87,887.39,1632.79,887.39,1632.71,887.38z"/>
				</g>
			</g>
			<g>
				<g>
					<path class="st6" d="M1729.46,892.81c-6.1,0-12.51-4.96-14.29-11.06s1.73-11.06,7.83-11.06c6.1,0,12.51,4.96,14.29,11.06
						C1739.07,887.85,1735.55,892.81,1729.46,892.81z M1723.59,872.72c-4.98,0-7.86,4.05-6.4,9.04c1.46,4.98,6.69,9.04,11.68,9.04
						c4.98,0,7.85-4.05,6.4-9.04C1733.81,876.77,1728.57,872.72,1723.59,872.72z"/>
				</g>
				<g>
					<path class="st6" d="M1726.76,883.56L1726.76,883.56c-0.86,0-1.77-0.7-2.02-1.56l-1.37-4.7c-0.25-0.86,0.25-1.56,1.11-1.56l0,0
						c0.86,0,1.77,0.7,2.02,1.56l1.37,4.7C1728.11,882.86,1727.62,883.56,1726.76,883.56z"/>
					<path class="st6" d="M1728,887.25h-0.34c-0.77,0-1.58-0.63-1.8-1.4l0,0c-0.22-0.77,0.22-1.39,0.99-1.39h0.34
						c0.77,0,1.58,0.63,1.8,1.39l0,0C1729.21,886.62,1728.77,887.25,1728,887.25z"/>
				</g>
			</g>
		</g>
	</g>
	<g>
		<g>
			<path class="st18" d="M664.43,1199.14c0,0,16.67,4.28,27.27,1.09c10.6-3.19,28.83,2.05,31.77,5.91c2.94,3.86,1.86,5.4-3.38,6.73
				c-5.24,1.33-23.81,9.25-36.01,4.67c-12.2-4.58-28.12-4.75-28.12-4.75L664.43,1199.14z"/>
			<path class="st19" d="M520.36,1054.33c0,0,18.73,133.09,49.73,145.01c15.3,5.88,82.92,19.22,102.92,20.56
				c0,0,4.9-3.98,3.71-20.16c0,0-70.84-26.01-80.91-40.15c-14.98-21.05,9.3-86-9.5-105.77
				C567.52,1034.05,535.87,1025.56,520.36,1054.33z"/>
		</g>
		<path class="st20" d="M531.18,1582.03h9.04c4.64,0,8.43-3.79,8.43-8.43v-209.79c0-4.64-3.79-8.43-8.43-8.43h-9.04
			c-4.64,0-8.43,3.79-8.43,8.43v209.79C522.75,1578.24,526.54,1582.03,531.18,1582.03z"/>
		<path class="st20" d="M455.78,1596.93c8.38-17.34,40.98-30.27,79.92-30.27s71.54,12.93,79.92,30.27H455.78z"/>
		<path class="st20" d="M477.07,1538.13h117.27c1.23,0,2.24-1.01,2.24-2.24v-4.65c0-1.23-1.01-2.24-2.24-2.24H477.07
			c-1.23,0-2.24,1.01-2.24,2.24v4.65C474.82,1537.13,475.83,1538.13,477.07,1538.13z"/>
		<path class="st21" d="M526.67,1334.73c5.46,9.27,11.78,17.95,18.29,26.17c20.13,25.41,42.04,46.36,45.85,66.16
			c0.76,3.95,1.96,8.2,3.54,12.67c1.59,4.54,3.56,9.31,5.84,14.24c8.54,18.55,21.31,39.34,34.06,58.24
			c22.04,32.67,42.77,59.92,42.77,59.92l38.02-1.62c-1.52-3.81-18.1-48.91-40.28-104.03c-9.01-22.38-18.58-46.18-27.82-69.13
			c-1.23-3.07-2.46-6.12-3.68-9.14c-2.83-7.02-5.6-13.94-8.32-20.67c-20.83-51.75-37.42-92.97-37.42-92.97s-83.24-31.53-91.89-11.1
			C498.51,1280.32,504.32,1296.83,526.67,1334.73z"/>
		<path class="st21" d="M678.22,1565.22c0,0,1.94,31.37,8.01,31.82c0.81,0.06,30.78,0.06,30.78,0.06l38.26-0.22
			c0,0-0.25-9.22-11.43-11.17c-11.19-1.95-29.91-9.81-36.68-24.59C700.03,1545.57,678.22,1565.22,678.22,1565.22z"/>
		<path class="st21" d="M590.19,1475.61c0,0-26.44,16.99-23.88,22.51c0.34,0.73,14.95,26.91,14.95,26.91l18.85,33.3
			c0,0,7.93-4.71,4.18-15.43c-3.75-10.72-6.01-30.89,3.59-44.02C617.99,1485.07,590.19,1475.61,590.19,1475.61z"/>
		<path class="st14" d="M627.42,1260.54c0,0,103.03,64.15,114.69,107.88c11.66,43.74-138.99,137.04-138.99,137.04
			s-16.52-14.58-19.44-25.27c0,0,68.1-81.58,82.87-99.87c9.07-11.23-134.13-38.88-151.63-66.09c-17.5-27.21-11.23-50.11-11.23-50.11
			L627.42,1260.54z"/>
		<path class="st22" d="M428.78,1401.5h213.84c4.28,0,7.78-3.5,7.78-7.78v-42.77c0-4.28-3.5-7.78-7.78-7.78H428.78
			c-4.28,0-7.78,3.5-7.78,7.78v42.77C421.01,1398,424.5,1401.5,428.78,1401.5z"/>
		<path class="st18" d="M577.65,1031.52c10.26,6.36,15.92,14.42,15.92,14.42c-25.03,6.47-66.53-16.72-66.53-16.72
			s16.11-10.83,22.08-34.61c0.3-1.2,0.58-2.43,0.82-3.69c0.78-4.01,1.27-8.34,1.36-13.02l11.5,10.3l19.12,17.13
			c0,0-0.43,7.11-2.83,19.33C578.68,1026.79,578.2,1029.08,577.65,1031.52z"/>
		<path class="st23" d="M500.54,1149.7c3.58,48.22-1.13,121.56,2.94,134.26c3.51,10.96,43.51,4.44,59.47,0.79
			c5.91-1.35,13.07-3.29,20.46-5.58c20.62-6.38,43.09-15.5,45.5-22.27c0.09-0.27,0.17-0.52,0.22-0.78c0.22-0.98,0.17-1.9-0.04-2.84
			c-0.8-3.45-3.9-7.18-4.26-15.72c-0.41-9.54-0.35-20.77-0.7-32.84c-0.02-1.36-0.04-2.84-0.19-4.2l-0.01-0.5
			c-0.01-0.26-0.01-0.51-0.02-0.77c-0.35-13.47-1.05-27.63-1.87-41.67c-0.52-8.82-1.12-17.55-1.81-25.92
			c-1.8-21.6-4.22-40.81-7.43-52.96c-5.24-19.8-16.8-32.71-27.32-42.17l-7.61-6.53c-8.49,1.85-18.53,0.62-27.61-3.68
			c-9.83-4.67-13.22-8.01-14.93-6.75C512.63,1037.09,496.3,1090.75,500.54,1149.7z"/>
		<path class="st19" d="M583.4,1279.17c20.62-6.38,43.09-15.5,45.5-22.27c0.09-0.27,0.17-0.52,0.22-0.78
			c-0.01-0.95-0.02-1.89-0.04-2.84c-0.8-3.45-3.9-7.18-4.26-15.72c-0.41-9.54-0.35-20.77-0.7-32.84c-0.02-1.36-0.04-2.84-0.19-4.2
			l-0.01-0.5c-0.01-0.26-0.01-0.51-0.02-0.77l-77.88-35.32C546.02,1163.93,541.53,1226.71,583.4,1279.17z"/>
		<path class="st24" d="M581.92,1005.32c0,0-0.43,7.11-2.83,19.33c-18.67-6.03-27.14-22.9-29.97-30.05
			c-0.8-2.02-1.15-3.27-1.15-3.27s0.72-0.16,1.97-0.42c2.62-0.56,7.57-1.61,12.85-2.72L581.92,1005.32z"/>
		<path class="st18" d="M589.48,1005.14c0,0-41.02,4.63-43.51-20.96c-2.49-25.59-9.46-42.23,16.63-46.26
			c26.08-4.04,32.13,5.23,35.04,13.57C600.54,959.82,600.08,1003.27,589.48,1005.14z"/>
		<path class="st20" d="M546.15,985.94c0,0,2.6-33.97,39.94-37.48c25.58-2.41,11.32-24.42,8.59-27.93c0,0-19.59,2.69-39.68,6
			C512.84,933.49,542.01,980.65,546.15,985.94z"/>
		<g>
			
				<rect x="759.88" y="1136.64" transform="matrix(-0.9511 -0.3089 0.3089 -0.9511 1119.9272 2549.4294)" class="st19" width="3.78" height="98.86"/>
			
				<rect x="644.63" y="1226.34" transform="matrix(-0.9998 -0.0214 0.0214 -0.9998 1366.5865 2473.4856)" class="st19" width="103.74" height="6.21"/>
		</g>
		<g>
			<path class="st18" d="M655.85,1219.6c0,0,16.1,6.09,26.98,4.09s28.43,5.22,30.93,9.38c2.49,4.16,1.25,5.57-4.1,6.32
				c-5.36,0.75-24.68,6.57-36.31,0.67c-11.62-5.9-27.42-7.82-27.42-7.82L655.85,1219.6z"/>
			<path class="st23" d="M528.62,1059.79c0,0,3.94,134.35,33.44,149.61c14.56,7.53,80.29,28.24,100.03,31.78
				c0,0,5.31-3.41,5.91-19.62c0,0-67.54-33.66-75.99-48.83c-12.57-22.57,18.72-84.45,2.22-106.17
				C577.73,1044.84,547.21,1032.9,528.62,1059.79z"/>
		</g>
	</g>
	<g>
		<path class="st25" d="M1649.54,1592.78c0,0,1.51-11.73,4.99-18.71c3.49-6.98,25.69-2.54,25.69-2.54s4.44,3.81,5.39,21.57
			L1649.54,1592.78z"/>
		<path class="st25" d="M1573.91,1592.62c5.22-3.18,2.25-26.94,2.25-26.94s-24.31-19.44-27.65-4.56
			c-3.34,14.89-23.09,21.57-34.33,23.39c-7.76,1.26-10.16,5.56-10.91,8.1H1573.91z"/>
		<path class="st26" d="M1624.26,1419.87c-0.99,5.45-1.62,9.92-1.78,13.13c-2.26,44.07-37.1,144.84-43.33,147.19
			c-9.64,3.64-24.83-4.09-32.77-6.63c-3.29-1.05-5.51-4.37-4.78-7.74c17.25-79.32,23.59-193.53,25.9-261.15
			c1.17-34.06,7.01-57.59,7.01-57.59s84.97-22.67,85.48,6.01C1660.43,1278.47,1631.83,1378,1624.26,1419.87z"/>
		<path class="st25" d="M1624.26,1419.87l-56.76-115.19c1.17-34.06,7.01-57.59,7.01-57.59s84.97-22.67,85.48,6.01
			C1660.43,1278.47,1631.83,1378,1624.26,1419.87z"/>
		<path class="st26" d="M1605.35,1253.2l44.92,325.57c0,0,19.73,4.76,35.07,0.95c0,0,13.15-173.15,12.06-215.01
			c-1.1-41.86,9.44-112.01-2.4-119.75C1683.15,1237.22,1605.35,1253.2,1605.35,1253.2z"/>
		<path class="st20" d="M1698.15,1169.61l5.6,78.16c0.22,2.94-1.67,5.62-4.5,6.44c-6.27,1.82-13.49,3.08-27.42,5.97
			c-13.09,2.72-30.69,5.13-52.33,5.26c-34.41,0.22-47.44-11.64-47.44-11.64c-1.48,0.03,0.78-7.17,2.82-41.41
			c0.69-11.6,1.36-26.3,1.84-44.88c0.43-16.72,0.73-36.58,0.75-60.15c0.04-28.35,43.91-58.84,44.72-58.84l0.01,0.01
			c0,4.08,6.43,11.61,16.34,12.26c11.76,0.77,26.19-5.08,26.19-11.86c0-0.07,21.26,34.01,28.81,70.31c0.96,4.6,1.7,9.46,2.29,14.57
			c0.01,0.08,0.02,0.16,0.03,0.23c0.11,0.93,0.21,1.87,0.31,2.82c0.02,0.17,0.03,0.33,0.05,0.5c0.09,0.86,0.17,1.73,0.25,2.6
			c0.02,0.25,0.04,0.5,0.06,0.75c0.07,0.8,0.14,1.6,0.21,2.41c0,0.07,0.01,0.15,0.02,0.22c0.05,0.6,0.09,1.2,0.14,1.81
			c0.03,0.43,0.06,0.86,0.1,1.29c0.05,0.71,0.1,1.41,0.15,2.13c0.02,0.36,0.05,0.71,0.07,1.08c0.04,0.68,0.08,1.36,0.12,2.05
			c0.02,0.3,0.04,0.61,0.05,0.92c0.05,0.99,0.11,1.99,0.16,2.99c0,0.08,0.01,0.16,0.01,0.24c0.05,0.96,0.1,1.94,0.14,2.92
			c0.01,0.24,0.02,0.48,0.03,0.72c0.05,0.92,0.09,1.84,0.12,2.78c0,0.14,0.01,0.28,0.02,0.41
			C1697.97,1164.96,1698.06,1167.27,1698.15,1169.61c0,0.06,0,0.12,0.01,0.18L1698.15,1169.61z"/>
		<path class="st20" d="M1622.2,1048.52c0,0-40.8-0.35-50.62,13.42c-9.82,13.77-31.35,87.85-20.11,112.5
			c11.23,24.65,32.26-10.2,43.92-25.3C1607.06,1134.05,1622.2,1048.52,1622.2,1048.52z"/>
		<path class="st27" d="M1621.79,1042.29l0.02,4.22c0,0-1.15,13.19,15.09,15.12c16.24,1.93,28.55-5.14,28.11-15.32
			c-1.46-7.88-3.07-13.29-3.18-19.81c-0.04-2.42,0.13-4.99,0.58-7.9l-31.47-0.63l-9.27,1.51L1621.79,1042.29z"/>
		<path class="st28" d="M1621.67,1019.48l0.12,22.81c3.34,1.55,7.12,2.5,11.34,2.5c14.46,0,23.81-10.61,28.7-18.31
			c-0.04-2.42,0.13-4.99,0.58-7.9l-31.47-0.63L1621.67,1019.48z"/>
		<path class="st27" d="M1664.82,1013.53c-3.65,19.65-29.01,19.01-39.97,17.77c-3.08-0.34-5.02-0.74-5.02-0.74
			c-3.48-0.93-5.42-6.41-6.32-13.58c-1.79-14.2,0.47-35.04,2.87-40.37c3.61-8.02,10.41-16.7,35.95-10.44
			C1677.86,972.44,1669.5,988.35,1664.82,1013.53z"/>
		<path class="st25" d="M1580.48,1103.73c0,0-15.78,34.85-15.32,45.29c0,0,7.81-0.27,15.32,1.97
			C1592.82,1154.67,1580.48,1103.73,1580.48,1103.73z"/>
		<path class="st25" d="M1608.54,957.9c0,0,11.24-0.86,24.5-6.63c10.76-4.68,24.34,0.47,28.74,2.8c-0.12-0.71-0.4-1.68-1.08-2.65
			c0,0,1.98,1.4,2.27,3.36c0.2,0.15,0.29,0.25,0.24,0.29c0,0,2.24-0.41,3.68,0.24c0,0-1.01-0.14-1.37,0.5
			c-0.04,0.07-0.09,0.13-0.16,0.18c16.79,8.11,18.33,34.64,12.93,40.78c-6.5,7.39-14.29,24.02-14.29,24.02s-2.84-3.93-1.66-10.43
			c1.18-6.5-4.43-6.5-11.52-9.45c-7.09-2.95-1.18-11.23-7.39-16.25c-6.2-5.02-28.95-2.07-28.65-5.91
			C1606.35,975.67,1608.54,958.77,1608.54,957.9z"/>
		<path class="st25" d="M1669.96,1169c-6.66,26.75-78.7,40.57-95.08,43.38c0.69-11.6,1.36-26.3,1.84-44.88L1669.96,1169z"/>
		<path class="st27" d="M1654.15,1177.7c0.69,0,16.01-2.29,18.76-3.66c2.75-1.37,15.3-19.22,7.08-23.79
			c-8.22-4.58-30.3,13.73-30.3,13.73L1654.15,1177.7z"/>
		<path class="st20" d="M1560.92,1183c0,0,59.28,3.22,99.07-5.3c0,0,1-11.49-11.5-16.6c0,0-62.01-13.14-76.9-9.48
			C1556.69,1155.28,1560.92,1183,1560.92,1183z"/>
		<path class="st20" d="M1697.06,1136.48c-12.3,14.83-28.39,26.95-46.12,29.78l0,0c-0.15-0.22-5.37-8.15-4.39-19.8
			c0.45-5.39,2.23-11.58,6.46-18.17c1.3-2.03,2.46-4.4,3.49-7.03c9.68-24.7,8.24-72.32,8.24-72.32s41.12,4.31,53.93,22.61
			C1726.51,1082.75,1716.5,1113.02,1697.06,1136.48z"/>
		<path class="st28" d="M1624.85,1031.3c-3.08-0.34-5.02-0.74-5.02-0.74c-3.48-0.93-5.42-6.41-6.32-13.58
			c6.52,1.61,9.51,6.64,10.75,8.79C1624.82,1026.73,1624.94,1028.9,1624.85,1031.3z"/>
		<path class="st27" d="M1608.29,1042.41c0,0-14.2-23.43-3.16-24.45c11.04-1.02,15.48,6.45,17.07,9.2
			c1.59,2.75-0.42,15.13-0.42,15.13L1608.29,1042.41z"/>
		<path class="st20" d="M1662.41,1145.67c-0.43,2.97-1.32,5.7-2.42,8.14c-3.47,7.7-9.04,12.45-9.04,12.45l0,0
			c-36.88-16.65-44.34-73.81-45.59-105.22c-0.5-12.62,0-21.09,0-21.09c16.64-5.51,21.31,4.06,21.31,4.06s19.64,46.71,29.83,77.24
			C1660.39,1132.93,1662.91,1142.25,1662.41,1145.67z"/>
		<path class="st25" d="M1697.06,1136.48c-12.3,14.83-28.39,26.95-46.12,29.78l0,0c-36.88-16.65-44.34-73.81-45.59-105.22
			c0,0,17.45,63.29,41.2,85.42c4.29,4,8.79,6.66,13.43,7.35c0,0,29.95-8.46,36.23-16.44
			C1696.67,1136.8,1696.94,1136.51,1697.06,1136.48z"/>
	</g>
	<path class="st29" d="M2778.83,1598.77H237.76c-1.59,0-2.89-1.3-2.89-2.89v-0.98c0-1.59,1.3-2.89,2.89-2.89h2541.08
		c1.59,0,2.89,1.3,2.89,2.89v0.98C2781.72,1597.47,2780.42,1598.77,2778.83,1598.77z"/>
	<g>
		<path class="st5" d="M2305.21,1539.19c7.19,26.88,60.33,42.7,118.46,51.98h216.91c52.28-25.6,52.21-56.13,56.41-140.43
			c8.66-174.12-82.93-258.18-123.78-244.31c-1.7,0.58-3.43,1.2-5.19,1.92c-11.87,4.77-25.16,13.21-38.1,33.28
			c0,0-40.6,67.66-74.01,108.02c-10.76,12.99-20.77,23.17-28.43,27.33c-0.09,0.05-0.17,0.1-0.27,0.14c-0.41,0.22-0.8,0.41-1.2,0.59
			c-17.7,8.1-42.65,25.09-65.44,46.52c0,0,0,0-0.01,0C2325.21,1457.45,2295.07,1501.3,2305.21,1539.19z"/>
		<path class="st8" d="M2360.56,1424.23c30.41,9.34,186.94,54.53,223.78,6.62c26.67-34.7,10.07-123.59-4.67-181.1
			c-6.04-23.57-36.18-28.93-49.37-8.71c-0.13,0.2-0.26,0.4-0.39,0.6c0,0-40.6,67.66-74.01,108.02
			c-9.67,12.75-19.2,22.58-28.43,27.33c-0.09,0.05-0.17,0.1-0.27,0.14c-0.4,0.22-0.8,0.41-1.2,0.59
			C2408.3,1385.82,2383.35,1402.8,2360.56,1424.23z"/>
		<g>
			<path class="st30" d="M2476.99,1204.57c0,0-10.85,16.05-17.03,49.79c-5.42,29.55-10.17,40.46-17.99,46.52
				c-7.82,6.06-51.42,23.95-51.42,23.95l3.26,7.64c0,0,63.9-8.7,71.08-19.38c7.18-10.68,34.54-73.78,32.42-88.31
				C2495.17,1210.26,2476.99,1204.57,2476.99,1204.57z"/>
			<g>
				<path class="st27" d="M2320.52,1557.07c0.58,6.23-8.1,7.75-18.15,8.25c-10.05,0.5-7.01,2.56-20.78,5.05
					c-13.77,2.49-19.29-1.27-20.29-3.13c-0.89-1.65,5.51-4.23,12.34-7.15c0.86-0.36,1.72-0.74,2.58-1.12
					c7.68-3.38,11.99-10.26,17.97-16.65c5.67-6.05,11.05-25.41,11.05-25.41l18.71-4c0,0-5.25,17.43-7.08,24.87
					c-1.07,4.38,0.51,9.27,1.92,12.99C2319.56,1552.8,2320.32,1554.87,2320.52,1557.07z"/>
				<path class="st31" d="M2302.37,1565.31c-10.05,0.5-7.01,2.56-20.78,5.05c-13.77,2.49-19.29-1.27-20.29-3.13
					c-0.89-1.65,5.51-4.23,12.34-7.15l0.11,0.12c0,0,9.68,3.29,20.86,0.25c9.11-2.47,17.92-7.92,24.19-9.68
					c0.76,2.03,1.52,4.1,1.72,6.3C2321.1,1563.3,2312.42,1564.81,2302.37,1565.31z"/>
			</g>
			<path class="st21" d="M2506.87,1335.16c0,0-124.35-9.36-147.76,5.42c-23.41,14.77-60.95,186.87-60.95,186.87s2.32,1.86,7.49,2.42
				c4.81,0.52,15.41-2.31,15.41-2.31s53.96-77,57.76-96.4c3.8-19.4,2.87-36.71,11.53-37.17c8.65-0.46,116.54,13.12,132.86-15.63
				c16.32-28.75,2.83-57.21,2.83-57.21L2506.87,1335.16z"/>
			<g>
				<path class="st27" d="M2368.1,1577.04c0.58,6.23-8.1,7.75-18.15,8.25c-10.05,0.5-7.01,2.56-20.78,5.05
					c-13.77,2.49-19.29-1.27-20.29-3.13c-0.89-1.65,5.51-4.23,12.34-7.15c0.86-0.36,1.72-0.74,2.58-1.12
					c7.68-3.38,11.99-10.26,17.97-16.65c5.67-6.05,11.06-25.41,11.06-25.41l18.71-4c0,0-5.25,17.43-7.08,24.87
					c-1.07,4.38,0.51,9.27,1.92,12.99C2367.14,1572.77,2367.91,1574.84,2368.1,1577.04z"/>
				<path class="st31" d="M2349.96,1585.29c-10.05,0.5-7.01,2.56-20.78,5.05c-13.77,2.49-19.29-1.27-20.29-3.13
					c-0.89-1.65,5.51-4.23,12.34-7.15l0.11,0.12c0,0,9.68,3.29,20.86,0.25c9.11-2.47,17.92-7.92,24.19-9.68
					c0.76,2.03,1.52,4.1,1.72,6.3C2368.68,1583.27,2360,1584.79,2349.96,1585.29z"/>
			</g>
			<path class="st14" d="M2531.22,1342.87c0,0-110.46,5.23-133.28,20.9c-22.82,15.67-53.64,189.1-53.64,189.1s2.39,1.77,7.58,2.12
				c4.83,0.33,15.31-2.91,15.31-2.91s50.92-79.04,53.96-98.57c3.04-19.53,1.44-36.79,10.07-37.59s116.96,8.57,132.15-20.79
				C2578.57,1365.77,2531.22,1342.87,2531.22,1342.87z"/>
			<path class="st32" d="M2493.4,1195.74c-2.14-3.76-4.71-10.52-6.56-22.76c0.24,1.21,3.4,16.59,9.95,24.98
				c25.59,14.46,76.15,65.07,75.9,75.31c0,0,14.68-29.17,14.95-29.36c0,0,27.94-40.86-9.72-60.68
				c-19.14-10.08-20.02-24.59-20.09-37.24c-0.07-12.65-9.47-66.51-45.36-49.86c0,0-6.09-2.23-8.71-1.66c0,0,2.19,0.27,3.37,1.33
				c-4.29,0.03-10.37,0.76-15.27,3.99C2478.87,1108.36,2471.37,1178.01,2493.4,1195.74z"/>
			<path class="st27" d="M2535.87,1186.09c0,0-10.29-0.98-20.57,0c-6.99,0.66-13.91,2.83-17.85,4.48
				c-9.74,4.07-8.71,21.31,11.71,18.11C2529.58,1205.49,2537.3,1191.2,2535.87,1186.09z"/>
			<path class="st27" d="M2498.3,1198.66c-0.12,0.06-2.91,14.83,10.46,14.24c8.78-0.39,27.72-11.01,26.05-18.53
				c-0.79-3.57-7.43-12.85-8.77-34.01l-1.6,0.43l-26.88,7.21c0,0,1.19,8.53,1.75,16.6
				C2499.79,1191.37,2499.81,1197.83,2498.3,1198.66z"/>
			<path class="st30" d="M2497.57,1167.99c0,0,1.19,8.53,1.75,16.6c15.21-1.45,22.34-15.89,25.13-23.81L2497.57,1167.99z"/>
			<path class="st32" d="M2527.06,1157.63c0,0,7.15-13.15,8.34-24.07c0.86-7.8-4.97-36.09-33.4-30.07c0,0-8.28,1.38-15.76,7.19
				c-5.95,4.62-14.34,14.31-2.62,38.56l3.17,8.24L2527.06,1157.63z"/>
			<path class="st27" d="M2492.99,1175.97c0,0,36.1-1.81,34.63-24.27c-1.47-22.46,2.19-37.83-20.92-37.62s-27.02,9.07-28.35,16.69
				C2477.01,1138.39,2483.56,1175.87,2492.99,1175.97z"/>
			<path class="st32" d="M2490.24,1114.63c0,0,11.63,25.69,27.04,28.58c15.41,2.89,21.71-1.61,21.71-1.61s-12.24-8.46-15.72-24.41
				C2523.27,1117.18,2496.85,1101.59,2490.24,1114.63z"/>
			<path class="st32" d="M2492.83,1116.6c0,0-6.98,6.38-8.4,12.21c-1.42,5.84-1.44,17.67-4.9,17.5c0,0-8.63-17.42-0.95-28.11
				C2486.73,1106.87,2492.83,1116.6,2492.83,1116.6z"/>
			<path class="st14" d="M2456.87,1337.04c2.92,3.49,12.04,4.57,21.79,6.17c7.67,1.27,15.73,2.85,21.46,6.22
				c13.01,7.64,55.53,33.46,67.99,32.29c4.83-0.46,3.93-9.68,1-21.92c-4.61-19.33-14.25-46.16-14.25-57.83
				c0-6.37-2.12-21.44-4.95-38.67c-0.23-1.39-0.46-2.79-0.7-4.2c-5.6-33.5-13.35-73.01-13.35-73.01s-8.65,18.87-25.5,18.87
				c-16.84,0-12.93-14.39-12.93-14.39s-15.37,1.81-19,5.72c-3.64,3.91-12.84,20.82-14.67,25.43c0,0-0.37,5.87,14.16,8.66
				c0,0-3.54,15.93-3.96,26.55c-0.31,7.84,5.35,32.39,6.98,47.67c0.58,5.41,0.65,9.65-0.22,11.58c-1.12,2.47-4.76,4.92-8.9,7.33
				C2463.61,1328.29,2453.4,1332.89,2456.87,1337.04z"/>
			<path class="st21" d="M2471.82,1323.5c-9.33,15.9,25.29,20.68,31.02,24.04c13.01,7.64,52.81,35.34,65.27,34.17
				c4.83-0.46,3.93-9.68,1-21.92c-4.61-19.33-14.25-46.16-14.25-57.83c0-6.37-2.12-21.44-4.95-38.67l-15-14.4
				c0,0-16.07,41.54-31.39,48.35c-8.03,3.56-16.42,5.92-22.58,7.35c0.58,5.41,0.65,9.65-0.22,11.58
				C2479.6,1318.64,2475.96,1321.09,2471.82,1323.5z"/>
			<path class="st27" d="M2540.48,1198.52c0,0,12.83-7.79,25.22,6.99c12.4,14.77-8.81,120.39-27.19,125.81
				c-20.41,6.03-79.36-0.96-79.36-0.96l1.14-9.21c0,0,62.76-12.03,65.37-15.39S2533.96,1200.23,2540.48,1198.52z"/>
			<path class="st14" d="M2535.87,1186.09c0,0,26.34,2.38,33.99,11.04s9.88,32.14,9.88,32.14s-23.19,18.72-51.14,11.46
				L2535.87,1186.09z"/>
			<g>
				
					<rect x="2418.2" y="1335.29" transform="matrix(-1 -1.224647e-16 1.224647e-16 -1 4871.1953 2674.6963)" class="st33" width="34.79" height="4.11"/>
				<path class="st33" d="M2425.59,1338.84c-0.34-1.36-31.98-51.04-31.98-51.04h-70.4l35.31,49.71L2425.59,1338.84z"/>
				<path class="st32" d="M2422.63,1339.4c-0.34-1.36-32.08-51.61-32.08-51.61h-67.33l33.59,51.61H2422.63z"/>
				<path class="st33" d="M2363.27,1313.77c0.69,2.01,2.89,3.64,4.9,3.64c2.01,0,3.08-1.63,2.39-3.64c-0.69-2.01-2.89-3.65-4.9-3.65
					C2363.65,1310.12,2362.58,1311.75,2363.27,1313.77z"/>
			</g>
			<path class="st27" d="M2465.41,1320.6c0,0-20.44-3.96-22.74-2.97c-2.31,0.99-15.16,12.53-13.84,14.83
				c1.32,2.31,6.59,3.96,12.52,1.98s18.79-2.97,21.09-5.93C2464.75,1325.54,2465.41,1320.6,2465.41,1320.6z"/>
		</g>
	</g>
	<g>
		<polygon class="st34" points="2029.7,747.84 1386.66,747.84 1337.38,586.46 1980.42,586.46 		"/>
		<g>
			<path class="st35" d="M1955.94,641.03l5.89,19.3c2.59,8.49-2.23,15.44-10.73,15.44h-532.74c-8.49,0-17.56-6.95-20.16-15.44
				l-5.89-19.3c-2.59-8.49,2.23-15.44,10.73-15.44h532.74C1944.28,625.59,1953.35,632.54,1955.94,641.03z"/>
			<g>
				<path class="st9" d="M1849.26,645.06h-8.17l-0.77-2.51h11.43l0.66,2.16l-3.03,14.1h-3.21L1849.26,645.06z"/>
				<path class="st9" d="M1856.23,650.68c-1.42-4.64,0.27-8.41,4.54-8.41c4.25,0,8.19,3.72,9.63,8.41c1.42,4.64-0.27,8.41-4.54,8.41
					S1857.67,655.37,1856.23,650.68z M1867.45,650.68c-0.98-3.2-3.43-5.83-5.94-5.83c-2.51,0-3.33,2.55-2.33,5.83
					c0.98,3.2,3.4,5.83,5.94,5.83C1867.65,656.51,1868.44,653.93,1867.45,650.68z"/>
				<path class="st9" d="M1871.58,646.52c-0.69-2.25,0.29-4.16,2.58-4.16c2.28,0,4.38,1.88,5.08,4.16c0.69,2.25-0.29,4.16-2.58,4.16
					C1874.38,650.68,1872.27,648.8,1871.58,646.52z M1883.9,642.55h2.3l-6.93,16.26h-2.3L1883.9,642.55z M1877.17,646.52
					c-0.4-1.3-1.47-2.37-2.51-2.37c-1.09,0-1.42,1.07-1.02,2.37c0.4,1.32,1.47,2.37,2.51,2.37
					C1877.25,648.89,1877.57,647.82,1877.17,646.52z M1883.94,654.84c-0.69-2.25,0.29-4.16,2.59-4.16c2.28,0,4.38,1.88,5.08,4.16
					c0.69,2.25-0.29,4.16-2.58,4.16C1886.74,658.99,1884.63,657.11,1883.94,654.84z M1889.53,654.84c-0.4-1.3-1.47-2.37-2.51-2.37
					c-1.09,0-1.42,1.07-1.02,2.37c0.4,1.32,1.46,2.37,2.51,2.37C1889.61,657.21,1889.93,656.14,1889.53,654.84z"/>
			</g>
			<g>
				<path class="st5" d="M1763.28,625.59l15.33,50.19h-360.23c-7.08,0-14.55-4.83-18.34-11.34c-0.77-1.31-1.39-2.69-1.82-4.11
					l-5.89-19.3c-2.59-8.49,2.23-15.44,10.73-15.44H1763.28z"/>
				<path class="st8" d="M1466.8,625.59l-15.19,50.19h-33.25c-7.08,0-14.55-4.83-18.34-11.34l11.75-38.85H1466.8z"/>
				<polygon class="st8" points="1561.08,625.59 1545.89,675.77 1490.88,675.77 1506.07,625.59 				"/>
				<polygon class="st8" points="1655.36,625.59 1640.18,675.77 1585.15,675.77 1600.34,625.59 				"/>
				<polygon class="st8" points="1749.65,625.59 1734.46,675.77 1679.44,675.77 1694.62,625.59 				"/>
			</g>
		</g>
		<g>
			<polygon class="st11" points="1516.07,705.5 1419.86,705.5 1417.83,698.87 1514.05,698.87 			"/>
			<polygon class="st11" points="1495.44,724.06 1425.53,724.06 1423.5,717.43 1493.41,717.43 			"/>
			<polygon class="st11" points="1541.54,724.06 1499.75,724.06 1497.72,717.43 1539.51,717.43 			"/>
			<polygon class="st11" points="1612.6,724.06 1548.76,724.06 1546.74,717.43 1610.57,717.43 			"/>
			<polygon class="st11" points="1552.44,705.5 1523.31,705.5 1521.28,698.87 1550.42,698.87 			"/>
			<polygon class="st11" points="1668.34,705.5 1562.41,705.5 1560.38,698.87 1666.32,698.87 			"/>
		</g>
	</g>
	<g>
		<polygon class="st34" points="1161.74,991.41 709.38,991.41 639.06,761.16 1091.43,761.16 		"/>
		<polygon class="st19" points="1097.9,876.28 702.91,876.28 673.03,778.43 1068.01,778.43 		"/>
		<g>
			<polygon class="st13" points="767.86,798.31 700.95,798.31 699.36,793.09 766.26,793.09 			"/>
			<polygon class="st13" points="839.42,798.31 783.78,798.31 782.18,793.09 837.83,793.09 			"/>
			<polygon class="st13" points="968.94,798.31 853.92,798.31 852.33,793.09 967.34,793.09 			"/>
			<polygon class="st13" points="773.57,817.02 706.66,817.02 705.07,811.8 771.98,811.8 			"/>
			<polygon class="st13" points="845.14,817.02 789.49,817.02 787.9,811.8 843.54,811.8 			"/>
			<polygon class="st13" points="910.85,817.02 855.21,817.02 853.61,811.8 909.26,811.8 			"/>
			<polygon class="st13" points="1042.72,819.2 927.71,819.2 926.12,813.97 1041.13,813.97 			"/>
		</g>
		<g>
			<polygon class="st13" points="780.81,840.73 713.9,840.73 712.31,835.51 779.22,835.51 			"/>
			<polygon class="st13" points="852.38,840.73 796.73,840.73 795.14,835.51 850.78,835.51 			"/>
			<polygon class="st13" points="981.89,840.73 866.88,840.73 865.28,835.51 980.29,835.51 			"/>
			<polygon class="st13" points="786.52,859.44 719.62,859.44 718.02,854.22 784.93,854.22 			"/>
			<polygon class="st13" points="858.09,859.44 802.44,859.44 800.85,854.22 856.5,854.22 			"/>
			<polygon class="st13" points="923.81,859.44 868.16,859.44 866.57,854.22 922.21,854.22 			"/>
			<polygon class="st13" points="1055.68,861.62 940.66,861.62 939.07,856.4 1054.08,856.4 			"/>
		</g>
		<g>
			<g>
				<g>
					<path class="st17" d="M967.77,957.35c-15.33,0-31.61-12.47-36.3-27.8c-4.68-15.33,3.98-27.8,19.31-27.8
						c15.33,0,31.61,12.47,36.3,27.8C991.76,944.88,983.1,957.35,967.77,957.35z M952.34,906.82c-12.53,0-19.61,10.19-15.79,22.73
						c3.83,12.53,17.14,22.73,29.67,22.73c12.53,0,19.61-10.19,15.79-22.73C978.18,917.02,964.87,906.82,952.34,906.82z"/>
				</g>
				<g>
					<path class="st17" d="M963.03,943.69c-1.06-0.08-2.18-0.53-3.14-1.29l-15.77-12.49c-2.13-1.69-2.89-4.37-1.69-5.98
						c1.19-1.62,3.89-1.56,6.02,0.13l11.14,8.83l5.48-13.06c0.79-1.89,3.31-2.31,5.62-0.94c2.31,1.37,3.54,4.02,2.75,5.91
						l-7.2,17.17c-0.43,1.02-1.38,1.65-2.61,1.74C963.44,943.71,963.24,943.71,963.03,943.69z"/>
				</g>
			</g>
			<g>
				<g>
					<path class="st17" d="M888.21,957.35c-15.33,0-31.61-12.47-36.3-27.8c-4.68-15.33,3.98-27.8,19.31-27.8
						c15.33,0,31.61,12.47,36.3,27.8C912.2,944.88,903.54,957.35,888.21,957.35z M872.78,906.82c-12.53,0-19.61,10.19-15.79,22.73
						c3.83,12.53,17.14,22.73,29.67,22.73c12.53,0,19.61-10.19,15.79-22.73C898.62,917.02,885.31,906.82,872.78,906.82z"/>
				</g>
				<g>
					<path class="st17" d="M883.48,943.69c-1.06-0.08-2.18-0.53-3.14-1.29l-15.77-12.49c-2.13-1.69-2.89-4.37-1.69-5.98
						c1.19-1.62,3.89-1.56,6.02,0.13l11.14,8.83l5.48-13.06c0.79-1.89,3.31-2.31,5.62-0.94c2.31,1.37,3.54,4.02,2.75,5.91
						l-7.2,17.17c-0.43,1.02-1.38,1.65-2.61,1.74C883.88,943.71,883.68,943.71,883.48,943.69z"/>
				</g>
			</g>
			<g>
				<g>
					<path class="st17" d="M805.8,957.35c-15.33,0-31.61-12.47-36.29-27.8c-4.68-15.33,3.98-27.8,19.31-27.8
						c15.33,0,31.61,12.47,36.29,27.8C829.8,944.88,821.13,957.35,805.8,957.35z M790.37,906.82c-12.53,0-19.61,10.19-15.79,22.73
						c3.83,12.53,17.13,22.73,29.67,22.73c12.53,0,19.61-10.19,15.79-22.73C816.21,917.02,802.9,906.82,790.37,906.82z"/>
				</g>
				<g>
					<path class="st17" d="M801.07,943.69c-1.06-0.08-2.18-0.53-3.14-1.29l-15.77-12.49c-2.13-1.69-2.89-4.37-1.69-5.98
						c1.19-1.62,3.89-1.56,6.02,0.13l11.14,8.83l5.48-13.06c0.79-1.89,3.31-2.31,5.62-0.94c2.31,1.37,3.54,4.02,2.75,5.91
						l-7.2,17.17c-0.43,1.02-1.38,1.65-2.61,1.74C801.47,943.71,801.27,943.71,801.07,943.69z"/>
				</g>
			</g>
			<g>
				<g>
					<path class="st6" d="M1044.52,957.35c-15.33,0-31.61-12.47-36.29-27.8c-4.68-15.33,3.98-27.8,19.31-27.8
						c15.33,0,31.61,12.47,36.29,27.8C1068.52,944.88,1059.85,957.35,1044.52,957.35z M1029.09,906.82
						c-12.53,0-19.61,10.19-15.79,22.73c3.83,12.53,17.13,22.73,29.67,22.73s19.61-10.19,15.79-22.73
						C1054.93,917.02,1041.62,906.82,1029.09,906.82z"/>
				</g>
				<g>
					<path class="st6" d="M1037.42,934.1L1037.42,934.1c-2.16,0-4.47-1.77-5.13-3.93l-3.61-11.81c-0.66-2.16,0.57-3.93,2.73-3.93
						l0,0c2.16,0,4.47,1.77,5.13,3.93l3.61,11.81C1040.81,932.33,1039.58,934.1,1037.42,934.1z"/>
					<path class="st6" d="M1040.68,943.37h-0.85c-1.93,0-3.99-1.58-4.58-3.51l0,0c-0.59-1.93,0.51-3.51,2.44-3.51h0.85
						c1.93,0,3.99,1.58,4.58,3.51l0,0C1043.7,941.79,1042.6,943.37,1040.68,943.37z"/>
				</g>
			</g>
		</g>
	</g>
	<g>
		<path class="st8" d="M2125.53,945.56c0,0,57.22,59.32,59.92,81.65c2.7,22.33-27.41,57.18-27.41,57.18L2125.53,945.56z"/>
		<path class="st21" d="M2099.68,1560.36c0,0-2.02,31.47-8.11,31.9c-0.81,0.06-30.88-0.01-30.88-0.01l-38.39-0.31
			c0,0,0.27-9.25,11.5-11.18c11.23-1.93,30.02-9.78,36.85-24.59C2077.84,1540.59,2099.68,1560.36,2099.68,1560.36z"/>
		<path class="st21" d="M2185.18,1560.54c0,0-2.02,31.47-8.11,31.9c-0.81,0.06-30.88-0.01-30.88-0.01l-38.39-0.31
			c0,0,0.27-9.25,11.5-11.18c11.23-1.93,30.02-9.78,36.85-24.59C2163.34,1540.78,2185.18,1560.54,2185.18,1560.54z"/>
		<path class="st21" d="M2057.9,1222.04c0,0,9.9,64.23,47.11,178.3c37.21,114.07,42.2,163.44,42.2,163.44l40.18-1.04
			c0,0,0.61-124.57-16.52-181.93c-17.14-57.36-3.28-206.65-3.28-206.65L2057.9,1222.04z"/>
		<path class="st14" d="M2038.45,1177.4c0,0-1.63,96.76,14.85,215.6c16.48,118.84,10.7,169.26,10.7,169.26l40.09,1.42
			c0,0,24.22-118.8,17.48-178.28c-6.74-59.48,33.26-203.98,33.26-203.98L2038.45,1177.4z"/>
		<path class="st27" d="M2116.56,951.14l-21.39,13.96l-30.86-5.82c0.43-2.49,2.49-12.82,4.37-22.17c0.11-0.55,0.23-1.1,0.33-1.64
			c1.61-7.96,3-14.79,3-14.79l28.86-12.66l10.76-4.72c-0.03,0.17-0.85,8.83-0.97,10.1C2108.59,935.85,2116.56,951.14,2116.56,951.14
			z"/>
		<path class="st8" d="M2072.24,943.97c0.6-0.25,37.2-10.97,41.18-9.65c3.97,1.32,6.31,9.01,6.31,9.01l-59.86,13.4
			C2059.86,956.74,2064.59,947.17,2072.24,943.97z"/>
		<path class="st5" d="M2170.22,1189.63c-6.26,28.27-109.46,31.4-136.01,5.67c-3.02-2.93-3.14-16.55-1.96-34.91
			c2.31-35.87,9.6-89.81,9.93-117.37c0.17-13.31,2.02-26.92,4.49-39.28c5.24-26.34,13.19-47,13.19-47s50.44-16.19,59.86-13.39
			C2165.13,956.79,2176.48,1161.36,2170.22,1189.63z"/>
		<path class="st8" d="M2032.25,1160.4c2.31-35.87,9.6-89.81,9.93-117.37c0.17-13.31,2.02-26.92,4.49-39.28l30.33-5.29
			C2077,998.45,2106.38,1119.6,2032.25,1160.4z"/>
		<path class="st27" d="M2048.78,1110.43c0,0,2.06,4.94-2.29,8.25s-7.17,8.68-6.19,12.6c0.98,3.93,10.49,10.36,13.79,9.33
			c3.3-1.03,10.03-6.18,9.31-8.26c-0.72-2.07,4.56-18.17-3.47-24.39C2051.9,1101.76,2048.78,1110.43,2048.78,1110.43z"/>
		<path class="st5" d="M2083.03,949.53c0,0-29.58,5.47-53.22,40.14c-23.64,34.67-39.2,60.45-34.88,72.98
			c4.31,12.52,43.78,56.01,50.6,56.03c6.82,0.01,17.84-4.92,18.48-16.08c0,0-27.76-41.81-22.26-48.05
			c2.35-2.67,36.23-30.05,41.03-17.64C2090.72,1057.45,2083.03,949.53,2083.03,949.53z"/>
		<path class="st36" d="M2108.49,913.78c-6.35,10.71-29.97,19.94-39.82,23.33c0.11-0.55,0.23-1.1,0.33-1.64
			c1.61-7.96,3-14.79,3-14.79l28.86-12.66C2107.24,907.94,2111.12,909.37,2108.49,913.78z"/>
		<path class="st27" d="M2061.13,918.89c0,0,46.42,14.59,55.06-14.46c8.64-29.05,20.45-46.73-8.82-57.27
			c-29.27-10.54-38.35-1.18-43.6,7.81C2058.54,863.97,2049.28,914.35,2061.13,918.89z"/>
		<path class="st21" d="M2065.61,852.18c0,0,2.89,33.83,9.89,32.38c7-1.45,13.34-2.53,12.3,7.67c-1.05,10.19-10.77,21.95,10.78,23.8
			c21.55,1.85,52.66-53.68,46.77-64.22C2128.32,821.4,2040.99,815.08,2065.61,852.18z"/>
	</g>
	<g>
		<g class="st37">
			<path class="st11" d="M1100.76,601.85v-8.24h8.49v8.24H1100.76z"/>
			<path class="st11" d="M1100.76,585.18v-8.24h8.49v8.24H1100.76z"/>
			<path class="st11" d="M1100.76,568.51v-8.24h8.49v8.24H1100.76z"/>
			<path class="st11" d="M1100.76,551.84v-8.24h8.49v8.24H1100.76z"/>
			<path class="st11" d="M1100.76,535.18v-8.24h8.49v8.24H1100.76z"/>
			<path class="st11" d="M1100.76,518.51v-8.24h8.49v8.24H1100.76z"/>
			<path class="st11" d="M1100.76,501.84v-8.24h8.49v8.24H1100.76z"/>
			<path class="st11" d="M1100.76,485.17v-8.24h8.49v8.24H1100.76z"/>
			<path class="st11" d="M1100.76,468.5v-8.24h8.49v8.24H1100.76z"/>
			<path class="st11" d="M1100.76,451.83v-8.24h8.49v8.24H1100.76z"/>
			<path class="st11" d="M1100.76,435.17v-8.24h8.49v8.24H1100.76z"/>
			<path class="st11" d="M1100.76,418.5v-8.24h8.49v8.24H1100.76z"/>
			<path class="st11" d="M1100.76,401.83v-8.24h8.49v8.24H1100.76z"/>
			<path class="st11" d="M1100.76,385.16v-8.24h8.49v8.24H1100.76z"/>
			<path class="st11" d="M1100.76,368.49v-8.24h8.49v8.24H1100.76z"/>
			<path class="st11" d="M1100.76,351.83v-8.24h8.49v8.24H1100.76z"/>
			<path class="st11" d="M1100.76,335.16v-8.24h8.49v8.24H1100.76z"/>
			<path class="st11" d="M1100.76,318.49v-8.24h8.49v8.24H1100.76z"/>
		</g>
		<g class="st37">
			<path class="st11" d="M1074.81,501.84v-8.24h8.49v8.24H1074.81z"/>
			<path class="st11" d="M1074.81,485.17v-8.24h8.49v8.24H1074.81z"/>
			<path class="st11" d="M1074.81,468.5v-8.24h8.49v8.24H1074.81z"/>
			<path class="st11" d="M1074.81,451.83v-8.24h8.49v8.24H1074.81z"/>
			<path class="st11" d="M1074.81,435.17v-8.24h8.49v8.24H1074.81z"/>
			<path class="st11" d="M1074.81,418.5v-8.24h8.49v8.24H1074.81z"/>
			<path class="st11" d="M1074.81,401.83v-8.24h8.49v8.24H1074.81z"/>
			<path class="st11" d="M1074.81,385.16v-8.24h8.49v8.24H1074.81z"/>
			<path class="st11" d="M1074.81,368.49v-8.24h8.49v8.24H1074.81z"/>
			<path class="st11" d="M1074.81,351.83v-8.24h8.49v8.24H1074.81z"/>
			<path class="st11" d="M1074.81,335.16v-8.24h8.49v8.24H1074.81z"/>
			<path class="st11" d="M1074.81,318.49v-8.24h8.49v8.24H1074.81z"/>
		</g>
		<g class="st37">
			<path class="st11" d="M1048.37,601.85v-8.24h8.49v8.24H1048.37z"/>
			<path class="st11" d="M1048.37,585.18v-8.24h8.49v8.24H1048.37z"/>
			<path class="st11" d="M1048.37,568.51v-8.24h8.49v8.24H1048.37z"/>
			<path class="st11" d="M1048.37,551.84v-8.24h8.49v8.24H1048.37z"/>
			<path class="st11" d="M1048.37,535.18v-8.24h8.49v8.24H1048.37z"/>
			<path class="st11" d="M1048.37,518.51v-8.24h8.49v8.24H1048.37z"/>
			<path class="st11" d="M1048.37,501.84v-8.24h8.49v8.24H1048.37z"/>
			<path class="st11" d="M1048.37,485.17v-8.24h8.49v8.24H1048.37z"/>
			<path class="st11" d="M1048.37,468.5v-8.24h8.49v8.24H1048.37z"/>
			<path class="st11" d="M1048.37,451.83v-8.24h8.49v8.24H1048.37z"/>
			<path class="st11" d="M1048.37,435.17v-8.24h8.49v8.24H1048.37z"/>
			<path class="st11" d="M1048.37,418.5v-8.24h8.49v8.24H1048.37z"/>
			<path class="st11" d="M1048.37,401.83v-8.24h8.49v8.24H1048.37z"/>
			<path class="st11" d="M1048.37,385.16v-8.24h8.49v8.24H1048.37z"/>
			<path class="st11" d="M1048.37,368.49v-8.24h8.49v8.24H1048.37z"/>
			<path class="st11" d="M1048.37,351.83v-8.24h8.49v8.24H1048.37z"/>
			<path class="st11" d="M1048.37,335.16v-8.24h8.49v8.24H1048.37z"/>
			<path class="st11" d="M1048.37,318.49v-8.24h8.49v8.24H1048.37z"/>
		</g>
		<g class="st37">
			<path class="st11" d="M1026.1,635.18v-8.24h8.49v8.24H1026.1z"/>
			<path class="st11" d="M1026.1,618.52v-8.24h8.49v8.24H1026.1z"/>
			<path class="st11" d="M1026.1,601.85v-8.24h8.49v8.24H1026.1z"/>
			<path class="st11" d="M1026.1,585.18v-8.24h8.49v8.24H1026.1z"/>
			<path class="st11" d="M1026.1,568.51v-8.24h8.49v8.24H1026.1z"/>
			<path class="st11" d="M1026.1,551.84v-8.24h8.49v8.24H1026.1z"/>
			<path class="st11" d="M1026.1,535.18v-8.24h8.49v8.24H1026.1z"/>
			<path class="st11" d="M1026.1,518.51v-8.24h8.49v8.24H1026.1z"/>
			<path class="st11" d="M1026.1,501.84v-8.24h8.49v8.24H1026.1z"/>
			<path class="st11" d="M1026.1,485.17v-8.24h8.49v8.24H1026.1z"/>
			<path class="st11" d="M1026.1,468.5v-8.24h8.49v8.24H1026.1z"/>
			<path class="st11" d="M1026.1,451.83v-8.24h8.49v8.24H1026.1z"/>
			<path class="st11" d="M1026.1,435.17v-8.24h8.49v8.24H1026.1z"/>
			<path class="st11" d="M1026.1,418.5v-8.24h8.49v8.24H1026.1z"/>
			<path class="st11" d="M1026.1,401.83v-8.24h8.49v8.24H1026.1z"/>
			<path class="st11" d="M1026.1,385.16v-8.24h8.49v8.24H1026.1z"/>
			<path class="st11" d="M1026.1,368.49v-8.24h8.49v8.24H1026.1z"/>
			<path class="st11" d="M1026.1,351.83v-8.24h8.49v8.24H1026.1z"/>
			<path class="st11" d="M1026.1,335.16v-8.24h8.49v8.24H1026.1z"/>
			<path class="st11" d="M1026.1,318.49v-8.24h8.49v8.24H1026.1z"/>
		</g>
		<g class="st37">
			<path class="st11" d="M996.72,485.17v-8.24h8.49v8.24H996.72z"/>
			<path class="st11" d="M996.72,468.5v-8.24h8.49v8.24H996.72z"/>
			<path class="st11" d="M996.72,451.83v-8.24h8.49v8.24H996.72z"/>
			<path class="st11" d="M996.72,435.17v-8.24h8.49v8.24H996.72z"/>
			<path class="st11" d="M996.72,418.5v-8.24h8.49v8.24H996.72z"/>
			<path class="st11" d="M996.72,401.83v-8.24h8.49v8.24H996.72z"/>
			<path class="st11" d="M996.72,385.16v-8.24h8.49v8.24H996.72z"/>
			<path class="st11" d="M996.72,368.49v-8.24h8.49v8.24H996.72z"/>
			<path class="st11" d="M996.72,351.83v-8.24h8.49v8.24H996.72z"/>
			<path class="st11" d="M996.72,335.16v-8.24h8.49v8.24H996.72z"/>
			<path class="st11" d="M996.72,318.49v-8.24h8.49v8.24H996.72z"/>
		</g>
	</g>
	<g>
		<g class="st37">
			<path class="st11" d="M2277.96,910.55v8.24h-8.49v-8.24H2277.96z"/>
			<path class="st11" d="M2277.96,927.22v8.24h-8.49v-8.24H2277.96z"/>
			<path class="st11" d="M2277.96,943.89v8.24h-8.49v-8.24H2277.96z"/>
			<path class="st11" d="M2277.96,960.56v8.24h-8.49v-8.24H2277.96z"/>
			<path class="st11" d="M2277.96,977.23v8.24h-8.49v-8.24H2277.96z"/>
			<path class="st11" d="M2277.96,993.89v8.24h-8.49v-8.24H2277.96z"/>
			<path class="st11" d="M2277.96,1010.56v8.24h-8.49v-8.24H2277.96z"/>
			<path class="st11" d="M2277.96,1027.23v8.24h-8.49v-8.24H2277.96z"/>
			<path class="st11" d="M2277.96,1043.9v8.24h-8.49v-8.24H2277.96z"/>
			<path class="st11" d="M2277.96,1060.57v8.24h-8.49v-8.24H2277.96z"/>
			<path class="st11" d="M2277.96,1077.24v8.24h-8.49v-8.24H2277.96z"/>
			<path class="st11" d="M2277.96,1093.9v8.24h-8.49v-8.24H2277.96z"/>
			<path class="st11" d="M2277.96,1110.57v8.24h-8.49v-8.24H2277.96z"/>
			<path class="st11" d="M2277.96,1127.24v8.24h-8.49v-8.24H2277.96z"/>
			<path class="st11" d="M2277.96,1143.91v8.24h-8.49v-8.24H2277.96z"/>
			<path class="st11" d="M2277.96,1160.58v8.24h-8.49v-8.24H2277.96z"/>
			<path class="st11" d="M2277.96,1177.24v8.24h-8.49v-8.24H2277.96z"/>
			<path class="st11" d="M2277.96,1193.91v8.24h-8.49v-8.24H2277.96z"/>
		</g>
		<g class="st37">
			<path class="st11" d="M2303.92,1010.56v8.24h-8.49v-8.24H2303.92z"/>
			<path class="st11" d="M2303.92,1027.23v8.24h-8.49v-8.24H2303.92z"/>
			<path class="st11" d="M2303.92,1043.9v8.24h-8.49v-8.24H2303.92z"/>
			<path class="st11" d="M2303.92,1060.57v8.24h-8.49v-8.24H2303.92z"/>
			<path class="st11" d="M2303.92,1077.24v8.24h-8.49v-8.24H2303.92z"/>
			<path class="st11" d="M2303.92,1093.9v8.24h-8.49v-8.24H2303.92z"/>
			<path class="st11" d="M2303.92,1110.57v8.24h-8.49v-8.24H2303.92z"/>
			<path class="st11" d="M2303.92,1127.24v8.24h-8.49v-8.24H2303.92z"/>
			<path class="st11" d="M2303.92,1143.91v8.24h-8.49v-8.24H2303.92z"/>
			<path class="st11" d="M2303.92,1160.58v8.24h-8.49v-8.24H2303.92z"/>
			<path class="st11" d="M2303.92,1177.24v8.24h-8.49v-8.24H2303.92z"/>
			<path class="st11" d="M2303.92,1193.91v8.24h-8.49v-8.24H2303.92z"/>
		</g>
		<g class="st37">
			<path class="st11" d="M2330.36,910.55v8.24h-8.49v-8.24H2330.36z"/>
			<path class="st11" d="M2330.36,927.22v8.24h-8.49v-8.24H2330.36z"/>
			<path class="st11" d="M2330.36,943.89v8.24h-8.49v-8.24H2330.36z"/>
			<path class="st11" d="M2330.36,960.56v8.24h-8.49v-8.24H2330.36z"/>
			<path class="st11" d="M2330.36,977.23v8.24h-8.49v-8.24H2330.36z"/>
			<path class="st11" d="M2330.36,993.89v8.24h-8.49v-8.24H2330.36z"/>
			<path class="st11" d="M2330.36,1010.56v8.24h-8.49v-8.24H2330.36z"/>
			<path class="st11" d="M2330.36,1027.23v8.24h-8.49v-8.24H2330.36z"/>
			<path class="st11" d="M2330.36,1043.9v8.24h-8.49v-8.24H2330.36z"/>
			<path class="st11" d="M2330.36,1060.57v8.24h-8.49v-8.24H2330.36z"/>
			<path class="st11" d="M2330.36,1077.24v8.24h-8.49v-8.24H2330.36z"/>
			<path class="st11" d="M2330.36,1093.9v8.24h-8.49v-8.24H2330.36z"/>
			<path class="st11" d="M2330.36,1110.57v8.24h-8.49v-8.24H2330.36z"/>
			<path class="st11" d="M2330.36,1127.24v8.24h-8.49v-8.24H2330.36z"/>
			<path class="st11" d="M2330.36,1143.91v8.24h-8.49v-8.24H2330.36z"/>
			<path class="st11" d="M2330.36,1160.58v8.24h-8.49v-8.24H2330.36z"/>
			<path class="st11" d="M2330.36,1177.24v8.24h-8.49v-8.24H2330.36z"/>
			<path class="st11" d="M2330.36,1193.91v8.24h-8.49v-8.24H2330.36z"/>
		</g>
		<g class="st37">
			<path class="st11" d="M2352.62,877.22v8.24h-8.49v-8.24H2352.62z"/>
			<path class="st11" d="M2352.62,893.89v8.24h-8.49v-8.24H2352.62z"/>
			<path class="st11" d="M2352.62,910.55v8.24h-8.49v-8.24H2352.62z"/>
			<path class="st11" d="M2352.62,927.22v8.24h-8.49v-8.24H2352.62z"/>
			<path class="st11" d="M2352.62,943.89v8.24h-8.49v-8.24H2352.62z"/>
			<path class="st11" d="M2352.62,960.56v8.24h-8.49v-8.24H2352.62z"/>
			<path class="st11" d="M2352.62,977.23v8.24h-8.49v-8.24H2352.62z"/>
			<path class="st11" d="M2352.62,993.89v8.24h-8.49v-8.24H2352.62z"/>
			<path class="st11" d="M2352.62,1010.56v8.24h-8.49v-8.24H2352.62z"/>
			<path class="st11" d="M2352.62,1027.23v8.24h-8.49v-8.24H2352.62z"/>
			<path class="st11" d="M2352.62,1043.9v8.24h-8.49v-8.24H2352.62z"/>
			<path class="st11" d="M2352.62,1060.57v8.24h-8.49v-8.24H2352.62z"/>
			<path class="st11" d="M2352.62,1077.24v8.24h-8.49v-8.24H2352.62z"/>
			<path class="st11" d="M2352.62,1093.9v8.24h-8.49v-8.24H2352.62z"/>
			<path class="st11" d="M2352.62,1110.57v8.24h-8.49v-8.24H2352.62z"/>
			<path class="st11" d="M2352.62,1127.24v8.24h-8.49v-8.24H2352.62z"/>
			<path class="st11" d="M2352.62,1143.91v8.24h-8.49v-8.24H2352.62z"/>
			<path class="st11" d="M2352.62,1160.58v8.24h-8.49v-8.24H2352.62z"/>
			<path class="st11" d="M2352.62,1177.24v8.24h-8.49v-8.24H2352.62z"/>
			<path class="st11" d="M2352.62,1193.91v8.24h-8.49v-8.24H2352.62z"/>
		</g>
		<g class="st37">
			<path class="st11" d="M2382,1027.23v8.24h-8.49v-8.24H2382z"/>
			<path class="st11" d="M2382,1043.9v8.24h-8.49v-8.24H2382z"/>
			<path class="st11" d="M2382,1060.57v8.24h-8.49v-8.24H2382z"/>
			<path class="st11" d="M2382,1077.24v8.24h-8.49v-8.24H2382z"/>
			<path class="st11" d="M2382,1093.9v8.24h-8.49v-8.24H2382z"/>
			<path class="st11" d="M2382,1110.57v8.24h-8.49v-8.24H2382z"/>
			<path class="st11" d="M2382,1127.24v8.24h-8.49v-8.24H2382z"/>
			<path class="st11" d="M2382,1143.91v8.24h-8.49v-8.24H2382z"/>
			<path class="st11" d="M2382,1160.58v8.24h-8.49v-8.24H2382z"/>
			<path class="st11" d="M2382,1177.24v8.24h-8.49v-8.24H2382z"/>
			<path class="st11" d="M2382,1193.91v8.24h-8.49v-8.24H2382z"/>
		</g>
	</g>
</g>
</svg>
